<?xml version="1.0" encoding="UTF-8" standalone="no"?>
<!DOCTYPE svg PUBLIC "-//W3C//DTD SVG 1.1//EN" "http://www.w3.org/Graphics/SVG/1.1/DTD/svg11.dtd">
<!-- Created with Vectornator (http://vectornator.io/) -->
<svg height="100%" stroke-miterlimit="10" style="fill-rule:nonzero;clip-rule:evenodd;stroke-linecap:round;stroke-linejoin:round;" version="1.1" viewBox="0 0 32 32" width="100%" xml:space="preserve" xmlns="http://www.w3.org/2000/svg" xmlns:xlink="http://www.w3.org/1999/xlink">
<defs/>
<g id="Layer-2">
<g opacity="1">
<g opacity="1">
<path d="M14.0478 19.5785L13.9503 30.2856" fill="none" opacity="1" stroke="#8b8b8b" stroke-linecap="round" stroke-linejoin="round" stroke-width="1.45427"/>
<path d="M26.9119 24.4458L13.9443 30.2722" fill="none" opacity="1" stroke="#8b8b8b" stroke-linecap="round" stroke-linejoin="miter" stroke-width="1.45427"/>
<path d="M25.8381 14.1164L13.9691 19.6067" fill="none" opacity="1" stroke="#8b8b8b" stroke-linecap="round" stroke-linejoin="miter" stroke-width="1.45427"/>
<path d="M28.7017 17.5445L16.9676 22.9813" fill="none" opacity="1" stroke="#8b8b8b" stroke-linecap="round" stroke-linejoin="miter" stroke-width="1.45427"/>
<path d="M5.15612 24.5126L13.9503 30.2856" fill="none" opacity="1" stroke="#8b8b8b" stroke-linecap="round" stroke-linejoin="miter" stroke-width="1.45427"/>
<path d="M1.15445 15.7941L9.94861 21.5671" fill="none" opacity="1" stroke="#8b8b8b" stroke-linecap="round" stroke-linejoin="miter" stroke-width="1.45427"/>
<path d="M5.04874 13.8084L13.8429 19.5814" fill="none" opacity="1" stroke="#8b8b8b" stroke-linecap="round" stroke-linejoin="miter" stroke-width="1.45427"/>
<path d="M5.155 18.4623L4.97352 24.4334" fill="none" opacity="1" stroke="#8b8b8b" stroke-linecap="round" stroke-linejoin="miter" stroke-width="1.45427"/>
<path d="M26.9625 18.7772L26.9119 24.4458" fill="none" opacity="1" stroke="#8b8b8b" stroke-linecap="round" stroke-linejoin="miter" stroke-width="1.45427"/>
<path d="M9.94861 21.5671L13.8429 19.5814" fill="none" opacity="1" stroke="#8b8b8b" stroke-linecap="butt" stroke-linejoin="miter" stroke-width="1.45427"/>
<path d="M1.15445 15.7941L5.04874 13.8084" fill="none" opacity="1" stroke="#8b8b8b" stroke-linecap="butt" stroke-linejoin="miter" stroke-width="1.45427"/>
<path d="M16.9676 22.9813L13.9691 19.6067" fill="none" opacity="1" stroke="#8b8b8b" stroke-linecap="butt" stroke-linejoin="miter" stroke-width="1.45427"/>
<path d="M28.7017 17.5445L25.842 14.0691" fill="none" opacity="1" stroke="#8b8b8b" stroke-linecap="butt" stroke-linejoin="miter" stroke-width="1.45427"/>
<path d="M10.9916 11.3864L5.19623 13.7335" fill="none" opacity="1" stroke="#8b8b8b" stroke-linecap="round" stroke-linejoin="miter" stroke-width="1.45427"/>
<path d="M9.74399 5.91391L3.61531 8.38482" fill="none" opacity="1" stroke="#8b8b8b" stroke-linecap="round" stroke-linejoin="miter" stroke-width="1.45427"/>
<path d="M3.61531 8.38482L5.04874 13.8084" fill="none" opacity="1" stroke="#8b8b8b" stroke-linecap="round" stroke-linejoin="round" stroke-width="1.45427"/>
<path d="M20.4839 10.662L25.842 14.0691" fill="none" opacity="1" stroke="#8b8b8b" stroke-linecap="round" stroke-linejoin="miter" stroke-width="1.45427"/>
<path d="M21.4603 8.80219L30.7468 14.6979" fill="none" opacity="1" stroke="#8b8b8b" stroke-linecap="round" stroke-linejoin="miter" stroke-width="1.45427"/>
<path d="M30.8455 14.7487L25.842 14.0691" fill="none" opacity="1" stroke="#8b8b8b" stroke-linecap="round" stroke-linejoin="miter" stroke-width="1.45427"/>
</g>
<g opacity="1">
<path d="M15.5027 1.71444C12.237 1.71444 9.5896 4.3625 9.5896 7.62754C9.5896 10.8926 12.237 13.5406 15.5027 13.5406C18.7684 13.5406 21.4158 10.8926 21.4158 7.62754C21.4158 4.3625 18.7684 1.71444 15.5027 1.71444Z" fill="#6dc7ff" fill-opacity="0" fill-rule="nonzero" opacity="1" stroke="#8b8b8b" stroke-linecap="butt" stroke-linejoin="round" stroke-width="1.71984"/>
<g opacity="1">
<path d="M12.4524 6.7882L15.0319 10.0637" fill="none" opacity="1" stroke="#8b8b8b" stroke-linecap="round" stroke-linejoin="round" stroke-width="1.71984"/>
<path d="M15.0319 10.0637L18.553 5.19141" fill="none" opacity="1" stroke="#8b8b8b" stroke-linecap="round" stroke-linejoin="round" stroke-width="1.71984"/>
</g>
</g>
</g>
</g>
</svg>
